<?xml version="1.0" encoding="UTF-8"?>
<svg xmlns="http://www.w3.org/2000/svg" xmlns:xlink="http://www.w3.org/1999/xlink" viewBox="0 0 16 16" width="16px" height="16px">
<g id="surface277050639">
<path style=" stroke:none;fill-rule:nonzero;fill:rgb(80.000001%,80.000001%,80.000001%);fill-opacity:1;" d="M 8 16 C 3.582031 16 0 12.417969 0 8 C 0 3.582031 3.582031 0 8 0 C 12.417969 0 16 3.582031 16 8 C 16 12.417969 12.417969 16 8 16 Z M 8 16 "/>
<path style=" stroke:none;fill-rule:nonzero;fill:rgb(72.156864%,61.960787%,100%);fill-opacity:1;" d="M 8 0.0664062 C 3.617188 0.0664062 0.0664062 3.617188 0.0664062 8 C 0.0664062 12.382812 3.617188 15.933594 8 15.933594 C 12.382812 15.933594 15.933594 12.382812 15.933594 8 C 15.933594 3.617188 12.382812 0.0664062 8 0.0664062 Z M 8 0.0664062 "/>
<path style=" stroke:none;fill-rule:nonzero;fill:rgb(100%,100%,100%);fill-opacity:1;" d="M 12.761719 5.269531 C 12.410156 5.425781 11.96875 5.570312 11.570312 5.621094 C 11.972656 5.378906 12.613281 4.882812 12.761719 4.429688 C 12.382812 4.652344 11.699219 4.886719 11.253906 4.972656 C 10.898438 4.597656 10.394531 4.429688 9.832031 4.429688 C 8.753906 4.429688 8 5.34375 8 6.414062 L 8 7.207031 C 6.414062 7.207031 4.867188 5.996094 3.902344 4.828125 C 3.734375 5.113281 3.640625 5.449219 3.640625 5.800781 C 3.640625 6.523438 4.300781 7.253906 4.828125 7.601562 C 4.507812 7.59375 3.902344 7.347656 3.636719 7.207031 C 3.636719 7.214844 3.636719 7.222656 3.636719 7.230469 C 3.636719 8.167969 4.296875 8.804688 5.1875 8.984375 C 5.027344 9.027344 4.828125 9.191406 4.0625 9.191406 C 4.308594 9.957031 5.558594 10.363281 6.414062 10.378906 C 5.746094 10.898438 4.550781 11.171875 3.636719 11.171875 C 3.476562 11.171875 3.394531 11.183594 3.238281 11.164062 C 4.105469 11.710938 5.3125 11.964844 6.414062 11.964844 C 10.007812 11.964844 11.964844 9.222656 11.964844 6.664062 C 11.964844 6.578125 11.964844 6.296875 11.960938 6.214844 C 12.34375 5.945312 12.5 5.660156 12.761719 5.269531 "/>
</g>
</svg>
